PathFileType        4      (X/Y/Z)      C:\Users\pc\Desktop\IMUTRC\Sujet_04\Sujet_04_Tpose.trc         
DataRate	CameraRate	NumFrames	NumMarkers	Units	OrigDataRate	OrigDataStartFrame	OrigNumFrames
60.0	60.0	4	64	mm	60.0	112	149
Frame#	Time	pHipOrigin			pRightASI			pLeftASI			pRightCSI			pLeftCSI			pRightIschialTub			pLeftIschialTub			pSacrum			pL5SpinalProcess			pL3SpinalProcess			pT12SpinalProcess			pIJ			pT4SpinalProcess			pT8SpinalProcess			pPX			pC7SpinalProcess			pTopOfHead			pRightAuricularis			pLeftAuricularis			pBackOfHead			pRightAcromion			pLeftAcromion			pRightArmLatEpicondyle			pRightArmMedEpicondyle			pLeftArmLatEpicondyle			pLeftArmMedEpicondyle			pRightUlnarStyloid			pRightRadialStyloid			pRightOlecranon			pLeftUlnarStyloid			pLeftRadialStyloid			pLeftOlecranon			pRightTopOfHand			pRightPinky			pRightBallHand			pLeftTopOfHand			pLeftPinky			pLeftBallHand			pRightGreaterTrochanter			pRightKneeLatEpicondyle			pRightKneeMedEpicondyle			pRightPatella			pLeftGreaterTrochanter			pLeftKneeLatEpicondyle			pLeftKneeMedEpicondyle			pLeftPatella			pRightTibialTub			pRightLatMalleolus			pRightMedMalleolus			pLeftTibialTub			pLeftLatMalleolus			pLeftMedMalleolus			pRightHeelFoot			pRightFirstMetatarsal			pRightFifthMetatarsal			pRightPivotFoot			pRightHeelCenter			pRightToe			pLeftHeelFoot			pLeftFirstMetatarsal			pLeftFifthMetatarsal			pLeftPivotFoot			pLeftHeelCenter			pLeftToe			
		X1	Y1	Z1	X2	Y2	Z2	X3	Y3	Z3	X4	Y4	Z4	X5	Y5	Z5	X6	Y6	Z6	X7	Y7	Z7	X8	Y8	Z8	X9	Y9	Z9	X10	Y10	Z10	X11	Y11	Z11	X12	Y12	Z12	X13	Y13	Z13	X14	Y14	Z14	X15	Y15	Z15	X16	Y16	Z16	X17	Y17	Z17	X18	Y18	Z18	X19	Y19	Z19	X20	Y20	Z20	X21	Y21	Z21	X22	Y22	Z22	X23	Y23	Z23	X24	Y24	Z24	X25	Y25	Z25	X26	Y26	Z26	X27	Y27	Z27	X28	Y28	Z28	X29	Y29	Z29	X30	Y30	Z30	X31	Y31	Z31	X32	Y32	Z32	X33	Y33	Z33	X34	Y34	Z34	X35	Y35	Z35	X36	Y36	Z36	X37	Y37	Z37	X38	Y38	Z38	X39	Y39	Z39	X40	Y40	Z40	X41	Y41	Z41	X42	Y42	Z42	X43	Y43	Z43	X44	Y44	Z44	X45	Y45	Z45	X46	Y46	Z46	X47	Y47	Z47	X48	Y48	Z48	X49	Y49	Z49	X50	Y50	Z50	X51	Y51	Z51	X52	Y52	Z52	X53	Y53	Z53	X54	Y54	Z54	X55	Y55	Z55	X56	Y56	Z56	X57	Y57	Z57	X58	Y58	Z58	X59	Y59	Z59	X60	Y60	Z60	X61	Y61	Z61	X62	Y62	Z62	X63	Y63	Z63	X64	Y64	Z64	
112	1.85	-43.1072	1006.83637	-745.6506299999999	30.39462	1115.41337	-600.3805099999998	27.90989	1112.35079	-894.3300399999999	-17.91318	1187.35502	-627.3658499999999	-19.93564	1184.8125	-867.9803199999999	-102.74076	946.10491	-684.3413199999999	-103.78088	944.89144	-804.6485599999999	-115.27999	1029.71902	-745.2461399999999	-75.4665	1128.24152	-746.1706899999999	-63.10063	1244.90834	-746.2862599999999	-62.86949	1352.0985	-745.6506299999999	103.20304	1567.98123	-749.7533299999999	-52.98835	1552.09051	-743.9170999999999	-62.23386	1459.1731	-744.6682899999998	95.86441	1440.62429	-750.9090199999999	-45.64972	1607.91029	-742.4724799999999	27.85211	1848.17807	-740.3922399999999	34.09283	1750.52233	-675.9625799999999	15.48623	1756.12743	-811.8716199999999	-28.60331	1754.91395	-736.5206899999998	-23.74941	1590.86388	-555.8286899999999	-41.02696	1572.48842	-938.9396399999999	31.72367	1454.95484	-281.6992299999999	75.06201	1411.73206	-309.0890599999999	43.45391	1469.11203	-1211.62449	101.00723	1445.36262	-1186.6616	89.45034	1373.99881	-46.16977999999992	88.468	1426.23596	-33.74611999999991	52.00601	1409.18955	-301.46150999999986	127.76143	1411.55871	-1447.55843	106.55454	1459.11532	-1460.84885	80.32039	1434.61471	-1192.49783	128.05036	1394.97457	180.5186400000001	120.0761	1350.71168	85.34764000000008	112.79526	1377.69702	3.6404200000000846	221.02555	1445.4204	-1652.17319	204.8459	1405.37577	-1556.13542	160.00516	1426.92938	-1485.5806	-42.35601	975.57498	-569.9858799999998	-84.71201	543.11611	-592.63739	-85.63656	541.03587	-676.77156	-38.07996	540.74695	-637.99819	-40.62247	973.55253	-921.1420299999999	-90.66381	541.78707	-900.74411	-95.63328	539.76461	-816.72551	-46.28535	538.66671	-853.1875	-28.54552	500.64453000000003	-637.01585	-122.73419	95.11322000000004	-591.94398	-123.4276	93.32190000000004	-658.22275	-36.23085	499.77777000000003	-853.70756	-123.31203	93.20633000000005	-903.17106	-127.18359	91.35723000000006	-837.00786	-168.38391	5.894010000000038	-621.06734	4.16048	-0.05777999999995885	-672.03323	8.95659	1.329040000000036	-587.55236	30.51019	-0.11556999999996129	-632.27753	-125.85455	6.934130000000038	-623.49429	121.05844	-0.5200599999999609	-637.42034	-168.49948	2.889220000000053	-866.82464	5.48952	4.27605000000005	-820.59707	7.91647	-0.05777999999994458	-905.07795	30.68355	2.0802400000000527	-860.98841	-125.97012	5.027250000000054	-865.66895	121.34736	1.2134700000000527	-858.27254	
113	1.867	-43.16499	1006.83637	-745.5928499999999	30.33684	1115.41337	-600.3805099999998	27.79432	1112.40858	-894.2722499999999	-18.02875	1187.35502	-627.3658499999999	-20.05121	1184.87029	-867.9803199999999	-102.79855	946.16269	-684.2835399999999	-103.83867	944.89144	-804.5907799999999	-115.33778	1029.71902	-745.2461399999999	-75.52428	1128.24152	-746.1129099999999	-63.15841	1244.96612	-746.2284699999999	-62.92727	1352.15629	-745.5928499999999	103.14526	1567.98123	-749.6377599999998	-53.04613	1552.09051	-743.8593099999999	-62.29164	1459.23089	-744.5527299999999	95.80663	1440.62429	-750.8512299999999	-45.64972	1607.91029	-742.4146999999999	27.96768	1848.17807	-740.2766799999999	34.09283	1750.52233	-675.8470099999998	15.54402	1756.18521	-811.7560499999998	-28.54552	1754.97174	-736.4628999999999	-23.74941	1590.86388	-555.7709099999998	-41.02696	1572.54621	-938.8818499999999	31.83924	1454.66591	-281.75700999999987	75.11979	1411.44314	-309.2046299999999	43.39613	1468.88089	-1211.50892	100.89166	1445.13148	-1186.54604	89.50812	1373.59432	-46.227569999999915	88.468	1425.88926	-33.80390999999992	52.0638	1408.95841	-301.5192999999999	127.76143	1411.212	-1447.38507	106.67011	1458.76861	-1460.6755	80.20483	1434.32579	-1192.38227	128.22371	1394.39673	180.4030700000001	120.19167	1350.2494	85.17429000000008	112.85304	1377.29253	3.524850000000084	221.43004	1444.84256	-1651.88427	205.01925	1404.9135	-1555.8465	160.12073	1426.52488	-1485.34946	-42.35601	975.63277	-569.9858799999998	-84.71201	543.11611	-592.63739	-85.63656	541.09365	-676.77156	-38.07996	540.74695	-637.99819	-40.73804	973.55253	-921.1420299999999	-90.66381	541.78707	-900.74411	-95.63328	539.76461	-816.72551	-46.34313	538.72449	-853.1875	-28.54552	500.64453000000003	-637.01585	-122.73419	95.17100000000005	-591.94398	-123.4276	93.37968000000004	-658.22275	-36.23085	499.83555000000007	-853.70756	-123.31203	93.20633000000005	-903.17106	-127.1258	91.41501000000005	-837.00786	-168.38391	5.894010000000038	-621.06734	4.16048	4.115016720200785E-14	-672.03323	8.95659	1.329040000000036	-587.55236	30.51019	-0.05777999999996128	-632.27753	-125.85455	6.934130000000038	-623.49429	121.05844	-0.5200599999999609	-637.42034	-168.49948	2.9470100000000534	-866.82464	5.48952	4.3338300000000505	-820.59707	7.91647	-0.05777999999994458	-905.07795	30.68355	2.0802400000000527	-860.98841	-125.97012	5.085030000000053	-865.66895	121.34736	1.2134700000000527	-858.27254	
114	1.883	-43.22277	1006.89416	-745.5928499999999	30.27906	1115.47115	-600.3227199999999	27.67875	1112.46636	-894.2722499999999	-18.08653	1187.4128	-627.3080599999998	-20.16678	1184.92807	-867.9225399999999	-102.85633	946.16269	-684.2835399999999	-103.89645	944.94922	-804.5907799999999	-115.39556	1029.7768	-745.1883499999999	-75.63985	1128.2993	-746.1129099999999	-63.27398	1245.02391	-746.1706899999999	-62.98506	1352.21407	-745.5350599999999	103.14526	1567.98123	-749.5221899999999	-53.10392	1552.14829	-743.7437399999999	-62.34943	1459.28867	-744.4949399999999	95.74884	1440.68208	-750.7356599999999	-45.70751	1607.96808	-742.2991299999999	28.14103	1848.17807	-740.1611099999999	34.15061	1750.52233	-675.7314399999999	15.65959	1756.18521	-811.5826999999999	-28.48774	1755.02952	-736.3473299999999	-23.8072	1590.97945	-555.6553399999999	-41.02696	1572.54621	-938.7662799999999	32.01259	1454.37699	-281.75700999999987	75.17758	1411.15422	-309.3201999999999	43.33834	1468.64975	-1211.39335	100.83388	1444.78477	-1186.37268	89.50812	1373.18983	-46.34312999999992	88.52579	1425.48476	-33.86168999999992	52.17936	1408.66949	-301.6348599999999	127.81922	1410.8653	-1447.21172	106.78568	1458.47969	-1460.55993	80.03147	1434.03686	-1192.2667	128.39706	1393.70331	180.28751000000008	120.24945	1349.67156	85.05872000000008	112.91083	1376.83025	3.4092800000000842	221.89231	1444.09136	-1651.53756	205.19261	1404.22008	-1555.55758	160.17851	1426.00482	-1485.11832	-42.35601	975.63277	-569.9858799999998	-84.71201	543.17389	-592.63739	-85.63656	541.09365	-676.77156	-38.07996	540.80473	-637.99819	-40.79583	973.61031	-921.1420299999999	-90.7216	541.84485	-900.74411	-95.69106	539.8224	-816.72551	-46.34313	538.78227	-853.1875	-28.54552	500.70232000000004	-637.01585	-122.6764	95.17100000000005	-591.94398	-123.4276	93.37968000000004	-658.22275	-36.28864	499.8933400000001	-853.70756	-123.31203	93.26411000000006	-903.17106	-127.1258	91.47280000000006	-837.00786	-168.38391	5.951800000000039	-621.06734	4.16048	4.115016720200785E-14	-672.03323	8.95659	1.386830000000036	-587.55236	30.51019	-0.05777999999996128	-632.27753	-125.85455	6.9919200000000385	-623.49429	121.05844	-0.5200599999999609	-637.42034	-168.49948	3.004790000000053	-866.82464	5.48952	4.3338300000000505	-820.59707	7.91647	5.5420040722317406E-14	-905.07795	30.68355	2.138020000000053	-860.98841	-125.97012	5.085030000000053	-865.66895	121.34736	1.2712600000000527	-858.27254	
115	1.9	-43.28056	1006.95194	-745.5350599999999	30.22127	1115.52894	-600.3227199999999	27.62097	1112.52415	-894.2722499999999	-18.14432	1187.4128	-627.3080599999998	-20.28234	1184.98585	-867.9225399999999	-102.91412	946.22048	-684.2257499999998	-103.95424	944.94922	-804.5329899999999	-115.45334	1029.83459	-745.1305699999999	-75.69764	1128.35709	-746.0551199999999	-63.33176	1245.02391	-746.1706899999999	-63.04284	1352.21407	-745.4772799999998	103.08747	1568.03902	-749.4066199999999	-53.10392	1552.20608	-743.6859599999999	-62.40721	1459.28867	-744.4371599999998	95.69106	1440.68208	-750.6778799999998	-45.70751	1608.02586	-742.2413499999999	28.2566	1848.17807	-740.0455399999998	34.2084	1750.52233	-675.6158699999999	15.71737	1756.18521	-811.5249099999999	-28.42995	1755.08731	-736.2317599999999	-23.8072	1591.03723	-555.5975499999998	-41.02696	1572.54621	-938.7084999999998	32.07037	1454.20364	-281.8147999999999	75.17758	1410.8653	-309.4357699999999	43.33834	1468.41862	-1211.27778	100.77609	1444.55363	-1186.25711	89.50812	1372.90091	-46.400919999999914	88.52579	1425.13806	-33.919479999999915	52.23715	1408.43835	-301.6926499999999	127.81922	1410.51859	-1447.09615	106.90125	1458.19077	-1460.44436	79.97369	1433.80573	-1192.15113	128.45485	1393.18325	180.22972000000007	120.30724	1349.26707	84.94315000000009	112.91083	1376.48354	3.2937100000000843	222.23902	1443.51351	-1651.24864	205.30817	1403.70002	-1555.26865	160.29408	1425.60033	-1484.88719	-42.41379	975.69055	-569.9280999999999	-84.71201	543.17389	-592.5796	-85.69435	541.15144	-676.71377	-38.07996	540.80473	-637.99819	-40.9114	973.6681	-921.0842399999999	-90.77938	541.90264	-900.68633	-95.69106	539.88018	-816.72551	-46.40092	538.78227	-853.24529	-28.54552	500.7601000000001	-637.01585	-122.6764	95.22878000000004	-591.94398	-123.4276	93.43747000000005	-658.16496	-36.34642	499.8933400000001	-853.70756	-123.31203	93.32190000000006	-903.17106	-127.1258	91.47280000000006	-837.00786	-168.38391	5.951800000000039	-621.06734	4.16048	0.057780000000041146	-672.03323	9.01438	1.386830000000036	-587.55236	30.51019	-0.05777999999996128	-632.27753	-125.85455	6.9919200000000385	-623.49429	121.05844	-0.462279999999961	-637.42034	-168.49948	3.004790000000053	-866.82464	5.48952	4.39162000000005	-820.59707	7.91647	5.5420040722317406E-14	-905.07795	30.68355	2.138020000000053	-860.98841	-125.97012	5.142820000000054	-865.66895	121.34736	1.2712600000000527	-858.27254	
